<?xml version="1.0" encoding="UTF-8" standalone="no"?>
<!-- Created with Inkscape (http://www.inkscape.org/) -->

<svg
   xmlns:dc="http://purl.org/dc/elements/1.1/"
   xmlns:cc="http://creativecommons.org/ns#"
   xmlns:rdf="http://www.w3.org/1999/02/22-rdf-syntax-ns#"
   xmlns:svg="http://www.w3.org/2000/svg"
   xmlns="http://www.w3.org/2000/svg"
   xmlns:sodipodi="http://sodipodi.sourceforge.net/DTD/sodipodi-0.dtd"
   xmlns:inkscape="http://www.inkscape.org/namespaces/inkscape"
   width="958.26685"
   height="441.38968"
   viewBox="0 0 958.26684 441.38968"
   id="svg7537"
   version="1.1"
   inkscape:version="0.91 r13725">
  <defs
     id="defs7539" />
  <sodipodi:namedview
     id="base"
     pagecolor="#ffffff"
     bordercolor="#666666"
     borderopacity="1.0"
     inkscape:pageopacity="0.0"
     inkscape:pageshadow="2"
     inkscape:zoom="0.24748737"
     inkscape:cx="-35.172195"
     inkscape:cy="135.34395"
     inkscape:document-units="px"
     inkscape:current-layer="layer1"
     showgrid="false"
     fit-margin-top="0"
     fit-margin-left="0"
     fit-margin-right="0"
     fit-margin-bottom="0"
     units="px"
     inkscape:window-width="1440"
     inkscape:window-height="847"
     inkscape:window-x="-8"
     inkscape:window-y="-8"
     inkscape:window-maximized="1"
     borderlayer="true" />
  <metadata
     id="metadata7542">
    <rdf:RDF>
      <cc:Work
         rdf:about="">
        <dc:format>image/svg+xml</dc:format>
        <dc:type
           rdf:resource="http://purl.org/dc/dcmitype/StillImage" />
        <dc:title></dc:title>
      </cc:Work>
    </rdf:RDF>
  </metadata>
  <g
     inkscape:label="Layer 1"
     inkscape:groupmode="layer"
     id="layer1"
     transform="translate(-420.61924,24.776118)">
    <g
       id="g8168"
       transform="translate(1010.1525,-40.406102)">
      <path
         style="fill:#fdf8cf"
         d="m -176.89351,453.28789 c -39.70134,-8.59747 -72.82727,-35.67376 -91.42922,-74.73191 l -10.53119,-22.11217 -37.92691,-0.0792 c -29.7139,-0.0621 -37.53893,0.57021 -36.13527,2.91965 0.98539,1.64935 13.27663,21.3517 27.31389,43.78299 14.03724,22.43129 26.31339,42.13364 27.28036,43.783 1.38846,2.36833 -11.51193,2.98403 -61.35903,2.92837 l -63.11713,-0.0705 -27.2541,-44.38648 c -22.24955,-36.23601 -27.86631,-43.87841 -30.58812,-41.6195 -2.61193,2.16771 -3.33402,11.79634 -3.33402,44.45692 l 0,41.68995 -51.3233,0 c -44.58701,0 -51.51442,-0.49807 -52.7795,-3.79482 -0.80092,-2.08714 -1.45621,-65.7824 -1.45621,-141.54503 l 0,-137.7502 51.53426,0 c 59.95863,0 53.65235,-3.89013 54.62913,33.69886 l 0.59515,22.90306 25.94742,-28.30096 25.94743,-28.30096 65.95852,0 c 39.25501,0 65.40951,0.88831 64.60247,2.19416 -0.74585,1.20679 -0.0561,2.62751 1.53291,3.15716 1.58892,0.52964 -15.32825,19.78441 -37.59372,42.78836 l -40.48268,41.82538 47.6326,0.6519 c 26.19792,0.35856 48.35138,-0.18113 49.22992,-1.19954 0.87853,-1.01828 3.95165,-7.78912 6.82918,-15.0463 8.03403,-20.26206 26.17082,-43.06859 44.85013,-56.39788 21.20582,-15.13215 42.51027,-22.91191 67.15904,-24.52451 l 19.33059,-1.26466 6.16071,-15.88435 c 5.84365,-15.06689 5.92934,-15.92377 1.66519,-16.65045 -8.99535,-1.53296 -7.13416,-10.75594 12.12098,-60.064559 10.48868,-26.859426 19.63383,-49.398825 20.32256,-50.087554 0.68872,-0.688729 11.280177,5.188812 23.536561,13.061202 27.188593,17.463479 26.071515,17.031356 57.070836,22.076844 13.8546195,2.254994 25.02341,5.113902 24.8195372,6.353123 -0.2039208,1.239225 0.6461411,2.881555 1.8888824,3.649624 1.2454284,0.76971 -5.70906279,21.766571 -15.4948624,46.78183 -9.7649272,24.96194 -18.5146412,47.8144 -19.4438012,50.78325 l -1.689376,5.3979 37.4000838,0 37.4000592,0 6.544587,10.19604 c 10.769345,16.7779 58.692313,86.77852 61.180153,89.36529 1.47828,1.53706 1.71713,-10.61455 0.66473,-33.81947 -0.90341,-19.9202 -0.89106,-42.86129 0.0276,-50.9802 l 1.66999,-14.76166 48.78662,0 c 45.77856,0 48.93974,0.28612 51.2701,4.64042 1.56623,2.92653 2.48347,33.5245 2.48347,82.84516 l 0,78.20475 5.3979,2.0115 c 5.30701,1.97762 5.56673,1.17835 15.42179,-47.4589 7.41,-36.57038 13.55258,-59.16702 23.55614,-86.65597 7.44277,-20.45206 14.26762,-37.91636 15.16636,-38.80957 2.75161,-2.73469 89.42004,30.20286 92.10719,35.0045 4.38307,7.83213 -22.03329,75.5974 -47.93591,122.96887 l -22.52483,41.19409 4.91267,4.91267 4.91265,4.91265 -10.52695,29.46391 c -19.54631,54.70821 -21.46129,59.45232 -23.98751,59.42557 -1.38626,-0.0144 -14.19786,-4.333 -28.4702,-9.59627 -14.27237,-5.26329 -26.41766,-9.5696 -26.98952,-9.5696 -0.57189,0 -1.03978,2.69895 -1.03978,5.99767 l 0,5.99767 -47.72469,0 c -35.9206,0 -48.03067,-0.74172 -48.96179,-2.99883 -0.6804,-1.64936 -15.91146,-24.54012 -33.846779,-50.86833 l -32.609672,-47.8695 1.584177,50.86833 1.5842,50.86833 -51.7048156,0 c -58.2500504,0 -54.6172134,1.30207 -54.6172134,-19.5757 l 0,-11.98608 -10.19604,8.72812 c -29.156309,24.95871 -75.228827,35.30836 -116.954577,26.27249 z m -203.92081,-165.86282 0,-25.67711 -9.59627,9.37052 c -5.27795,5.15377 -9.59627,10.41455 -9.59627,11.69059 0,2.1451 17.24635,30.22502 18.59278,30.27211 0.32987,0.012 0.59976,-11.53371 0.59976,-25.65611 z m 330.919351,-96.07561 c -0.140106,-8.28604 -0.33635,-8.53523 -2.485675,-3.15546 -1.283502,3.21258 -1.788745,7.26101 -1.122764,8.99651 2.21422,5.7702 3.762363,3.26423 3.608439,-5.84105 z"
         id="path8182"
         inkscape:connector-curvature="0" />
      <path
         style="fill:#edd3b5"
         d="m -171.27686,454.57681 c -40.22319,-7.2353 -75.44259,-33.89341 -95.6943,-72.43247 -4.80212,-9.13846 -8.33775,-17.00875 -7.85695,-17.48957 0.48082,-0.4808 4.61461,6.34594 9.18622,15.17053 17.00964,32.83367 51.57971,58.35911 89.94791,66.41461 21.19313,4.44957 34.02215,4.44593 55.17857,-0.0168 21.587971,-4.55257 43.238866,-15.24795 58.325983,-28.81257 6.573591,-5.91022 12.60305,-10.74586 13.398797,-10.74586 0.795747,0 1.446806,8.09686 1.446806,17.99302 l 0,17.99301 49.5470697,0 49.5470703,0 -1.697701,-52.17974 c -1.22446,-37.63461 -0.969248,-51.45466 0.915532,-49.57854 1.642139,1.63458 3.108017,22.36217 3.944692,55.77834 l 1.331459,53.17829 -51.5373846,0 c -58.0555574,0 -54.4498064,1.29459 -54.4498064,-19.54938 l 0,-11.95974 -10.19604,8.15571 c -14.793327,11.83302 -25.060211,17.50014 -41.986187,23.17564 -17.34779,5.81693 -51.03721,8.19992 -69.35174,4.90552 z m 420.21797,-5.71451 c -34.0868,-12.52448 -32.38742,-12.25307 -32.38742,-5.17258 l 0,6.15934 -47.3816,-0.0945 -47.3816,-0.0945 -33.023438,-49.45001 c -18.16289,-27.19755 -32.576685,-49.89679 -32.030681,-50.4428 0.546004,-0.546 15.1713,20.12965 32.500682,45.9459 l 31.507967,46.93871 45.35326,0 45.35326,0 0.75177,-6.97759 0.75178,-6.9776 23.99068,9.0265 c 13.19487,4.96456 26.26418,9.74722 29.0429,10.62813 4.66216,1.478 6.21237,-1.59742 20.07922,-39.83422 8.26486,-22.78974 15.41229,-41.86029 15.88315,-42.37902 0.47089,-0.51872 1.54791,0.85952 2.39336,3.06277 1.87351,4.88225 -27.76852,87.89891 -31.32144,87.72016 -1.36963,-0.0688 -12.20646,-3.69531 -24.08185,-8.05869 z m -836.94287,-2.61184 c -1.20042,-3.12824 5.19419,-3.5986 48.92423,-3.5986 l 50.30514,0 0,-41.50388 c 0,-40.8945 1.14465,-47.41874 8.27678,-47.17586 1.38547,0.0473 14.77494,20.05454 29.75438,44.46076 l 27.23536,44.37499 60.93214,-0.67776 c 33.51267,-0.37279 60.93135,-0.49618 60.93039,-0.27424 -9.3e-4,0.22192 0.66066,2.1297 1.47025,4.23944 1.3293,3.46409 -4.53573,3.77376 -60.51586,3.19504 l -61.98781,-0.64082 -27.29717,-43.87174 c -22.34932,-35.91961 -27.90467,-43.36755 -30.64874,-41.09018 -2.63411,2.18612 -3.35158,11.70618 -3.35158,44.4715 l 0,41.68995 -51.3233,0 c -43.40759,0 -51.53628,-0.55502 -52.70421,-3.5986 z m 421.05867,-13.18103 c -26.79205,-4.06585 -52.2155,-17.71563 -69.71997,-37.43245 -11.08286,-12.4836 -25.58398,-39.90919 -28.04883,-53.04805 l -1.48113,-7.89514 -48.91391,0 -48.91391,0 0,-29.98836 0,-29.98835 48.91391,0 48.91391,0 1.48835,-7.79697 c 4.28903,-22.46872 24.33056,-52.64228 45.14094,-67.96202 20.21983,-14.88498 36.9892,-20.62349 65.31082,-22.34947 l 23.84015,-1.45287 11.47798,-28.48377 c 15.93938,-39.55514 15.4683,-36.96769 7.13456,-39.18782 l -7.1373,-1.90139 10.55415,-27.589286 c 5.80476,-15.174107 11.653645,-30.061067 12.997507,-33.082132 l 2.443403,-5.492846 13.8028,9.331202 c 14.725697,9.955097 30.72993,16.004856 49.189081,18.59395 6.267566,0.879092 11.395574,2.185704 11.395574,2.903577 0,0.717876 -5.583183,15.712197 -12.407045,33.320715 -12.23069,31.5604 -12.482425,31.9661 -17.708843,28.54162 -5.240453,-3.43368 -5.44219,-3.08056 -17.439667,30.52915 l -12.13787,34.00302 10.723067,10.27451 c 12.593262,12.06647 28.619902,36.00818 31.412129,46.92565 1.352259,5.28728 2.338036,-4.65346 3.16382,-31.90432 l 1.199534,-39.58463 33.5869559,0 33.5869561,0 43.746771,64.56123 c 24.060707,35.50866 45.421827,66.8165 47.469117,69.57298 3.38823,4.56193 3.66064,-1.23285 3.03506,-64.56123 l -0.68728,-69.57298 33.58695,0 33.58696,0 0.62155,122.95225 0.62155,122.95225 -34.29984,0 -34.29986,0 -20.30073,-30.35011 C 97.338875,381.21479 75.961713,349.63706 60.999492,327.73459 l -27.204067,-39.82263 0.814315,69.57298 0.814292,69.57298 -34.1867231,0.66564 -34.1867229,0.66562 -0.04007,-39.05071 -0.04006,-39.05074 -8.195386,16.79348 c -23.170009,47.47857 -73.52422,73.90896 -125.71828,65.98822 z m 44.02861,-50.34282 c 25.085334,-10.97343 34.820537,-41.37997 23.059609,-72.0235 -6.985199,-18.20018 -6.448959,-22.58308 4.189133,-34.24032 17.065173,-18.70004 18.567901,-28.57748 3.481384,-22.88295 -9.921566,3.74498 -19.934316,-2.20485 -19.934316,-11.84543 0,-7.83558 42.339719,-127.40776 46.978317,-132.67214 4.660334,-5.28905 11.046006,-24.404179 8.846493,-26.481449 -1.015166,-0.958749 -5.935319,-3.424794 -10.933682,-5.4801 -9.065288,-3.727624 -9.094412,-3.72072 -11.707717,2.77629 -1.440905,3.582268 -2.986601,11.371325 -3.434842,17.309019 -0.741001,9.81537 -39.157619,110.84835 -44.107469,115.99952 -1.08028,1.12421 -6.92722,0.98521 -12.99506,-0.30893 -6.15409,-1.31254 -11.03113,-1.42063 -11.03113,-0.24448 0,1.15953 -1.66843,2.10823 -3.70764,2.10823 -2.03921,0 -6.35753,2.64988 -9.59627,5.88863 -5.08725,5.08724 -5.89346,8.10724 -5.924,22.19138 -0.0192,8.96651 -1.36893,18.82876 -2.99884,21.9161 -1.6299,3.08733 -9.44095,9.02503 -17.35788,13.19487 -15.9242,8.38729 -27.90615,23.32684 -32.5548,40.59056 -5.48478,20.36895 7.87866,45.35664 30.08,56.24519 7.15762,3.51044 12.39665,7.38127 11.64227,8.60189 -0.75439,1.2206 0.65285,1.62018 3.12721,0.88794 2.47435,-0.73222 9.8967,0.15666 16.49414,1.97532 13.40957,3.69646 24.1669,2.71402 38.38509,-3.50564 z M -48.543358,94.786962 c -0.815492,-1.319488 -2.562277,-2.399069 -3.881765,-2.399069 -1.319487,0 -1.731863,1.079581 -0.916372,2.399069 0.815491,1.319487 2.562277,2.399068 3.881765,2.399068 1.319487,0 1.731863,-1.079581 0.916372,-2.399068 z m -40.784161,-4.798137 c -0.815492,-1.319487 -1.958792,-2.399068 -2.540662,-2.399068 -0.58187,0 -1.057941,1.079581 -1.057941,2.399068 0,1.319488 1.1433,2.399068 2.540661,2.399068 1.397362,0 1.873433,-1.07958 1.057942,-2.399068 z m 44.382763,-4.798136 c 0,-1.319488 -1.1433,-2.399069 -2.540661,-2.399069 -1.397362,0 -1.873433,1.079581 -1.057941,2.399069 0.815491,1.319487 1.958791,2.399068 2.540661,2.399068 0.58187,0 1.057941,-1.079581 1.057941,-2.399068 z m -39.584627,-4.798137 c -0.815491,-1.319488 -1.958791,-2.399068 -2.540661,-2.399068 -0.58187,0 -1.057941,1.07958 -1.057941,2.399068 0,1.319488 1.1433,2.399068 2.540661,2.399068 1.397361,0 1.873432,-1.07958 1.057941,-2.399068 z m 4.798137,-9.596273 c -0.815492,-1.319488 -2.562277,-2.399068 -3.881765,-2.399068 -1.319487,0 -1.731863,1.07958 -0.916372,2.399068 0.815491,1.319488 2.562277,2.399068 3.881765,2.399068 1.319487,0 1.731863,-1.07958 0.916372,-2.399068 z M -313.64041,425.85838 c -1.41233,-2.63897 -2.0281,-4.79813 -1.36835,-4.79813 0.65974,0 2.35509,2.15916 3.76742,4.79813 1.41233,2.63898 2.0281,4.79814 1.36836,4.79814 -0.65974,0 -2.35509,-2.15916 -3.76743,-4.79814 z m 545.19387,-5.61032 c -14.84117,-5.49098 -26.98645,-10.94339 -26.98952,-12.11647 -0.0168,-6.35846 20.30816,-56.73215 22.55378,-55.89797 1.44695,0.53751 13.96644,5.06709 27.82106,10.06572 13.85462,4.99865 25.86671,9.73882 26.69355,10.53376 1.92199,1.84783 -18.11347,56.23406 -20.96145,56.89985 -1.17344,0.27431 -14.27626,-3.99387 -29.11742,-9.48489 z m -804.29324,-115.54263 0,-123.68375 34.18672,0.66563 34.18672,0.66564 1.19954,43.78067 1.19953,43.78067 40.30918,-44.38043 40.30918,-44.38044 40.65938,0 c 24.4119,0 40.65937,0.92144 40.65937,2.30592 0,1.26825 -19.43174,22.48021 -43.18166,47.13767 -28.24441,29.3237 -42.45347,45.74599 -41.07655,47.47474 2.23936,2.81154 81.862,129.21199 89.69405,142.38873 l 4.63437,7.79697 -42.82043,-0.0738 -42.82043,-0.0738 -31.14261,-50.63137 -31.1426,-50.63138 -12.58085,14.06638 -12.58085,14.06639 -0.65931,36.03904 -0.65931,36.03905 -34.18672,0.66564 -34.18672,0.66562 0,-123.68375 z m 247.10403,101.96041 c -1.41233,-2.63898 -2.0281,-4.79814 -1.36835,-4.79814 0.65974,0 2.35509,2.15916 3.76742,4.79814 1.41233,2.63897 2.0281,4.79813 1.36836,4.79813 -0.65975,0 -2.3551,-2.15916 -3.76743,-4.79813 z m -11.99534,-19.19255 c -1.41233,-2.63898 -2.0281,-4.79814 -1.36836,-4.79814 0.65975,0 2.3551,2.15916 3.76743,4.79814 1.41233,2.63897 2.0281,4.79814 1.36836,4.79814 -0.65975,0 -2.3551,-2.15917 -3.76743,-4.79814 z m -17.71709,-27.50489 c -2.13099,-3.25229 -3.87452,-7.03083 -3.87452,-8.39674 0,-1.61385 14.18307,-2.48346 40.50435,-2.48346 39.74935,0 40.53015,0.0986 41.88855,5.29313 0.7613,2.91122 0.8872,5.79011 0.27981,6.39753 -0.60742,0.60739 -1.10439,-0.15515 -1.10439,-1.69454 0,-2.01615 -10.75879,-2.79892 -38.46949,-2.79892 -37.7261,0 -38.41989,0.0927 -35.90163,4.79814 3.61163,6.74839 1.32738,5.98176 -3.32268,-1.11514 z m 650.47136,1.86046 c -2.30911,-0.60342 -4.19837,-2.29104 -4.19837,-3.75023 0,-1.45921 10.30462,-21.38546 22.89917,-44.28058 26.41197,-48.01328 54.67127,-119.54593 48.7176,-123.31869 -2.2688,-1.43772 -2.36762,-2.0663 -0.32889,-2.092 1.60294,-0.0202 4.12347,2.2224 5.6012,4.98357 4.57258,8.54392 -20.50004,73.58418 -47.34854,122.82568 -12.28884,22.53838 -22.34334,41.76821 -22.34334,42.73297 0,0.96476 1.34948,2.29865 2.99884,2.96417 3.67012,1.48092 -0.24452,1.43858 -5.99767,-0.065 z m -31.8211,-24.22047 c -9.21801,-3.34874 -17.00148,-6.24566 -17.29659,-6.43761 -0.29511,-0.19193 3.18915,-19.71996 7.7428,-43.39555 5.48091,-28.49656 12.05969,-53.58817 19.46355,-74.23439 6.1513,-17.15334 11.85058,-31.9507 12.66506,-32.88303 1.40079,-1.60346 55.95067,17.01172 59.11043,20.17148 3.19568,3.1957 -21.72743,64.8297 -39.09435,96.67894 -10.07297,18.47283 -20.00567,36.42237 -22.07268,39.88784 l -3.75816,6.30092 -16.76006,-6.0886 z m -51.5098,-85.08269 -0.0367,-85.76669 -49.78067,-0.54723 -49.78066,-0.54723 49.17538,-0.70387 c 44.15408,-0.632 49.48215,-0.28433 52.17974,3.40483 3.73611,5.10944 4.30198,160.60804 0.60528,166.32828 -1.52552,2.36056 -2.33823,-25.908 -2.36234,-82.16809 z m 17.13554,74.97088 c 0,-3.29872 0.54454,-4.64819 1.21007,-2.99883 0.66552,1.64936 0.66552,4.34831 0,5.99767 -0.66553,1.64936 -1.21007,0.29988 -1.21007,-2.99884 z m 2.39907,-11.99534 c 0,-3.29872 0.54454,-4.64819 1.21006,-2.99883 0.66553,1.64936 0.66553,4.34831 0,5.99767 -0.66552,1.64936 -1.21006,0.29988 -1.21006,-2.99884 z m -615.9689,-2.76975 c -1.06058,-1.71605 -0.6581,-2.11852 1.05795,-1.05794 2.02807,1.25342 2.76974,-5.2018 2.76974,-24.10689 l 0,-25.8187 -9.71671,9.48339 c -6.87769,6.71255 -9.35904,10.88532 -8.49256,14.28154 1.02716,4.02604 0.47606,3.83301 -3.42482,-1.19954 -2.55693,-3.29871 -4.6327,-6.53746 -4.61283,-7.1972 0.0199,-0.65974 24.36689,-26.02989 54.10445,-56.3781 29.73758,-30.34822 53.44135,-53.92131 52.67507,-52.38464 -0.76629,1.53666 -0.1641,3.20365 1.33827,3.70443 1.50232,0.50077 -15.49436,19.75554 -37.77038,42.78836 l -40.50189,41.87787 17.99302,0.71948 c 9.89615,0.3957 32.29928,0.3957 49.78469,0 17.48545,-0.39573 31.78989,0.0902 31.78766,1.07982 -0.002,0.98962 -22.67523,1.7993 -50.38447,1.7993 l -50.38043,0 0,27.58929 c 0,25.49082 -1.67806,32.17949 -6.22676,24.81953 z m -5.76858,-9.22559 c -1.41234,-2.63897 -2.0281,-4.79814 -1.36835,-4.79814 0.65974,0 2.35508,2.15917 3.76742,4.79814 1.41233,2.63898 2.02809,4.79814 1.36835,4.79814 -0.65974,0 -2.35508,-2.15916 -3.76742,-4.79814 z m 624.13655,0 c 0,-3.29872 0.54454,-4.64819 1.21006,-2.99884 0.66553,1.64936 0.66553,4.34832 0,5.99768 -0.66552,1.64936 -1.21006,0.29988 -1.21006,-2.99884 z m 2.39906,-11.99534 c 0,-3.29872 0.54454,-4.6482 1.21007,-2.99884 0.66553,1.64936 0.66553,4.34831 0,5.99767 -0.66553,1.64936 -1.21007,0.29989 -1.21007,-2.99883 z m 2.39907,-11.99534 c 0,-3.29872 0.54454,-4.6482 1.21007,-2.99884 0.66552,1.64936 0.66552,4.34831 0,5.99767 -0.66553,1.64936 -1.21007,0.29989 -1.21007,-2.99883 z M 110.67304,265.73528 c -8.16998,-9.85991 -9.56437,-13.19359 -2.39784,-5.73272 4.26691,4.44214 7.33743,8.49719 6.8234,9.01122 -0.51402,0.51402 -2.50551,-0.96131 -4.42556,-3.2785 z m 130.06074,0.78498 c -0.10412,-2.52901 0.46285,-3.94597 1.26004,-3.14878 0.79718,0.79721 0.8824,2.86641 0.18928,4.59822 -0.76583,1.91381 -1.33431,1.34535 -1.44942,-1.44944 z m 2.39907,-11.99534 c -0.10412,-2.52901 0.46285,-3.94596 1.26004,-3.14877 0.79718,0.79719 0.8824,2.86638 0.18928,4.59821 -0.76583,1.91381 -1.33431,1.34535 -1.44942,-1.44944 z m 2.39906,-11.99534 c -0.10411,-2.52901 0.46286,-3.94596 1.26004,-3.14878 0.79719,0.7972 0.8824,2.86639 0.18929,4.59822 -0.76583,1.91382 -1.33431,1.34534 -1.44942,-1.44944 z m -518.38815,-2.94015 c 0,-1.2872 1.67891,-4.43598 3.73095,-6.99728 3.51793,-4.39103 3.56788,-4.31448 0.87456,1.34077 -3.49738,7.34363 -4.60551,8.70463 -4.60551,5.65651 z m -215.91615,-37.6721 c 0,-18.64075 0.92607,-30.36018 2.39907,-30.36018 1.45475,0 2.39907,10.44315 2.39907,26.53133 0,17.07665 0.85492,26.00296 2.39906,25.04863 4.02409,-2.48701 2.67955,0.20205 -2.39906,4.79814 -4.77412,4.32052 -4.79814,4.19029 -4.79814,-26.01792 z m 600.57366,-1.57136 c 0,-9.89616 0.42346,-13.94459 0.94106,-8.99651 0.51758,4.94808 0.51758,13.04493 0,17.99301 -0.5176,4.94808 -0.94106,0.89965 -0.94106,-8.9965 z m -586.17925,14.16864 c 0,-0.65974 4.31832,-5.41626 9.59627,-10.57004 5.27795,-5.15378 9.59627,-8.83072 9.59627,-8.17098 0,0.65974 -4.31832,5.41626 -9.59627,10.57005 -5.27795,5.15378 -9.59627,8.83072 -9.59627,8.17097 z m 219.51475,-4.57237 c 2.38825,-2.63898 4.88205,-4.79814 5.5418,-4.79814 0.65974,0 -0.75449,2.15916 -3.14273,4.79814 -2.38825,2.63897 -4.88206,4.79813 -5.5418,4.79813 -0.65975,0 0.75448,-2.15916 3.14273,-4.79813 z m 9.59627,-11.99534 c 2.38825,-2.63898 4.88206,-4.79814 5.5418,-4.79814 0.65974,0 -0.75448,2.15916 -3.14273,4.79814 -2.38825,2.63897 -4.88206,4.79813 -5.5418,4.79813 -0.65974,0 0.75448,-2.15916 3.14273,-4.79813 z m 194.839709,-5.39791 0.641967,-10.19604 -3.016924,7.87766 c -2.290727,5.98152 -3.687536,7.20702 -5.803107,5.09143 -2.115594,-2.11558 -1.062403,-7.46151 4.375565,-22.21009 8.228276,-22.31625 8.404464,-22.58751 12.203869,-18.78811 1.561385,1.56139 3.540808,2.8389 4.398715,2.8389 0.857907,0 9.980172,-21.59162 20.271696,-47.98137 C -4.9294482,77.318348 2.5307665,61.200006 4.852249,61.200006 c 1.9227093,0 2.9776996,1.349476 2.3444175,2.998835 -0.633306,1.64936 -9.3854431,24.134164 -19.4492225,49.966229 -10.06378,25.83207 -18.29779,47.66546 -18.29779,48.51865 0,0.85319 16.463606,1.87956 36.5857915,2.28082 l 36.5857915,0.72958 -44.9825306,0.53245 -44.9825304,0.53244 0,17.99301 c 0,9.89616 -0.838211,17.99301 -1.862709,17.99301 -1.024474,0 -1.573813,-4.58821 -1.220718,-10.19604 z m 10.730457,-29.82789 c -1.731839,-0.69302 -3.801036,-0.60779 -4.598222,0.18941 -0.797187,0.79719 0.619775,1.36421 3.148777,1.26004 2.794795,-0.11511 3.363254,-0.68359 1.449445,-1.44944 z m 103.377388,34.62603 c -3.596635,-4.65045 -5.8591,-8.99651 -4.683389,-8.99651 0.585877,0 2.833636,2.69896 4.995028,5.99767 4.044446,6.17258 3.819197,8.34 -0.311639,2.99884 z m -298.151744,-7.79697 c 1.64262,-1.97923 3.52636,-3.5986 4.18611,-3.5986 0.65974,0 -0.14443,1.61937 -1.78704,3.5986 -1.64262,1.97923 -3.52637,3.5986 -4.18611,3.5986 -0.65975,0 0.14442,-1.61937 1.78704,-3.5986 z m -215.91615,-1.4253 c 0,-0.65974 4.31832,-5.41626 9.59627,-10.57004 5.27795,-5.15378 9.59628,-8.83072 9.59628,-8.17098 0,0.65974 -4.31833,5.41626 -9.59628,10.57004 -5.27795,5.15379 -9.59627,8.83073 -9.59627,8.17098 z m 266.94632,-25.21436 c 0.79719,-0.79719 2.86639,-0.88242 4.59822,-0.1894 1.91381,0.76584 1.34535,1.33432 -1.44944,1.44943 -2.529,0.10417 -3.94596,-0.46284 -3.14878,-1.26003 z m 14.31647,-2.59798 c 2.29372,-0.60047 6.61204,-0.62225 9.59627,-0.0484 2.98422,0.57384 1.10755,1.06513 -4.1704,1.09176 -5.27795,0.0266 -7.7196,-0.44288 -5.42587,-1.04335 z m 28.29051,-4.34932 c 0,-1.31949 1.04649,-4.01844 2.32558,-5.99767 1.27909,-1.97923 2.32559,-2.51902 2.32559,-1.19953 0,1.31949 -1.0465,4.01844 -2.32559,5.99767 -1.27909,1.97923 -2.32558,2.51902 -2.32558,1.19953 z m 7.72348,-29.52036 c -7.38274,-1.0965 -6.99011,-7.6652 0.45818,-7.6652 3.22084,0 6.38836,0.86124 7.03891,1.91385 2.11996,3.43016 -1.97491,6.57152 -7.49709,5.75135 z m 13.86813,-66.442368 c 0,-1.319488 1.0465,-4.01844 2.32559,-5.997671 1.27908,-1.979231 2.32558,-2.519022 2.32558,-1.199534 0,1.319488 -1.0465,4.018439 -2.32558,5.997671 -1.27909,1.979231 -2.32559,2.519021 -2.32559,1.199534 z m 112.0829598,-5.18746 c 1.6493595,-0.66553 4.3483113,-0.66553 5.9976708,0 1.64935943,0.665533 0.29988351,1.210057 -2.9988354,1.210057 -3.2987189,0 -4.6481948,-0.544524 -2.9988354,-1.210057 z M -21.55384,52.413944 c 1.649359,-0.66553 4.348311,-0.66553 5.997671,0 1.649359,0.665533 0.299883,1.210056 -2.998836,1.210056 -3.298719,0 -4.648194,-0.544523 -2.998835,-1.210056 z m -16.839132,-2.383849 c 1.624241,-0.65716 4.862983,-0.697162 7.197205,-0.08889 2.334221,0.608269 1.005281,1.145946 -2.953182,1.194837 -3.958462,0.04889 -5.868265,-0.448782 -4.244023,-1.105942 z m -13.748989,-3.224499 c -1.979231,-1.279077 -2.519022,-2.325594 -1.199534,-2.325594 1.319488,0 4.018439,1.046517 5.997671,2.325594 1.979231,1.279078 2.519022,2.325595 1.199534,2.325595 -1.319488,0 -4.018439,-1.046517 -5.997671,-2.325595 z M -94.125656,21.552797 c -5.27795,-3.250778 -8.644134,-5.916036 -7.480364,-5.922797 2.457339,-0.01428 18.276171,9.488681 18.276171,10.979183 0,1.522882 -0.474751,1.300521 -10.795807,-5.056386 z"
         id="path8180"
         inkscape:connector-curvature="0" />
      <path
         style="fill:#f1a791"
         d="m 245.57927,447.26923 c -13.72442,-5.17854 -25.8697,-9.41551 -26.98952,-9.41551 -1.11983,0 -2.03606,2.69895 -2.03606,5.99767 l 0,5.99767 -46.61848,0 -46.61846,0 -5.41508,-7.79697 c -4.81229,-6.92906 -4.8762,-7.32963 -0.57421,-3.5986 4.23819,3.67571 10.41737,4.19837 49.63446,4.19837 l 44.79363,0 0,-5.99767 c 0,-3.29872 0.99566,-5.99767 2.21257,-5.99767 1.2169,0 14.28275,4.42338 29.0352,9.8297 14.75242,5.40635 27.6282,8.91499 28.61278,7.79697 0.9846,-1.11799 8.05192,-19.57591 15.70514,-41.01759 7.65324,-21.44167 14.83365,-38.98486 15.95646,-38.98486 1.12284,0 1.98821,1.34948 1.92305,2.99884 -0.2418,6.12182 -29.9588,84.2138 -32.26896,84.79821 -1.31948,0.33381 -13.62812,-3.63006 -27.35252,-8.80856 z m -434.46812,1.91812 c -27.64528,-9.45971 -49.47493,-25.07124 -64.59952,-46.19849 -7.34245,-10.25653 -6.31649,-9.57699 9.59627,6.35585 20.53494,20.56088 35.13527,29.09091 61.20589,35.75864 43.42722,11.10682 86.396546,1.37421 122.013498,-27.63619 11.261803,-9.17286 13.328888,-10.1168 13.328888,-6.08658 0,9.51173 -33.539383,31.60528 -59.812376,39.40047 -20.20881,5.99595 -61.92998,5.18242 -81.73265,-1.5937 z m -398.24534,-2.93689 c 0,-3.08172 7.06392,-3.5986 49.1809,-3.5986 l 49.1809,0 0,-40.41233 c 0,-36.66194 0.42318,-40.79532 4.55996,-44.53906 6.66081,-6.02795 9.23597,-0.0425 2.88859,6.71413 -4.71676,5.02077 -5.04948,8.01257 -5.04948,45.40469 l 0,40.02977 -50.38044,0 c -43.18323,0 -50.38043,-0.51409 -50.38043,-3.5986 z m 161.79404,-2.99883 c -3.06134,-4.70407 -3.25664,-5.74889 -0.68053,-3.64066 2.60253,2.12987 20.61203,3.1363 64.39534,3.5986 46.02864,0.48603 61.02471,1.36972 61.78078,3.64066 0.7813,2.3467 -12.28853,2.99883 -60.10184,2.99883 l -61.10025,0 -4.2935,-6.59743 z m 379.527819,2.99883 c -1.19987,-3.12682 5.084202,-3.5986 47.9343443,-3.5986 l 49.3152477,0 -0.809397,-50.38219 c -0.445196,-27.71019 -0.258452,-50.38139 0.414966,-50.38043 0.673395,9.6e-4 8.545938,10.79756 17.49451,23.99244 8.948573,13.19487 15.717664,23.99068 15.042422,23.99068 -0.675217,0 -6.805677,-8.36675 -13.623229,-18.59278 -6.817552,-10.22603 -13.46549,-19.67236 -14.773223,-20.99185 -1.571125,-1.58525 -1.890345,14.89421 -0.941058,48.58113 l 1.436634,50.9802 -50.0551446,0 c -42.2803404,0 -50.2696454,-0.55895 -51.4360724,-3.5986 z M -187.03749,427.55687 c -20.52389,-7.15512 -40.74249,-21.06031 -52.98813,-36.44213 -10.08962,-12.67365 -21.51081,-35.49285 -24.3367,-48.62398 l -1.67796,-7.79697 -48.99029,0 -48.99027,0 0,-28.73914 0,-28.73916 48.26834,-0.64942 48.26835,-0.64945 6.36352,-17.99302 c 18.01578,-50.94011 61.09823,-81.523 114.93332,-81.58761 l 16.07563,-0.0192 12.59511,-31.80895 c 6.92731,-17.49502 12.59511,-33.14026 12.59511,-34.76729 0,-1.62704 -2.69896,-2.95826 -5.99767,-2.95826 -3.29872,0 -6.03064,-0.80968 -6.07092,-1.7993 -0.15834,-3.8898 22.906761,-62.97554 24.583566,-62.97554 0.982443,0 7.796205,3.844519 15.14172,8.543377 16.185842,10.353959 27.389563,14.48603 45.368061,16.732294 11.206887,1.400209 13.371975,2.396682 12.182229,5.606834 -20.233646,54.594565 -26.342106,65.788485 -31.418367,57.574945 -2.354061,-3.80897 -3.975784,-0.37008 -16.576602,35.15088 l -10.878431,30.66558 14.410867,15.00741 c 9.138003,9.5163 17.487409,21.42713 22.819218,32.55274 l 8.408375,17.54533 0,-38.91719 0,-38.91717 34.3994962,0 34.3994968,0 46.569058,68.97321 c 44.110373,65.33167 46.612053,68.52989 47.383113,60.57647 0.44774,-4.6182 0.44774,-35.65646 0,-68.97391 l -0.81405,-60.57718 34.20869,7e-4 34.20873,7.1e-4 -0.62177,121.75271 -0.62174,121.75272 -33.58696,0 -33.58695,0 -46.781836,-69.15415 -46.781832,-69.15415 -0.636113,69.82137 -0.636113,69.82138 -32.950843,-0.66723 -32.950843,-0.66722 -1.199534,-39.3684 -1.199535,-39.36842 -4.230277,11.77913 c -5.675883,15.80437 -24.100512,39.64317 -39.575606,51.20509 -20.156108,15.05927 -35.897568,20.03227 -66.551258,21.02462 -22.88414,0.74083 -28.53399,0.10676 -42.5314,-4.77307 z m 64.73046,-44.6034 c 15.85179,-8.12886 25.309281,-21.97268 28.073584,-41.09407 1.193752,-8.2574 0.130509,-14.91271 -4.565931,-28.57766 -7.867093,-22.89092 -7.726753,-25.59767 1.796374,-34.64249 18.089143,-17.18067 22.114588,-33.88333 6.100567,-25.31289 -6.831035,3.65587 -18.446944,-1.48912 -20.333644,-9.00629 -1.67937,-6.6912 40.419436,-128.40501 47.157171,-136.33823 4.017528,-4.73037 9.53788,-18.52343 9.53788,-23.831205 0,-1.497719 -4.92452,-4.548281 -10.943374,-6.779026 l -10.943374,-4.055898 -3.828673,8.936325 c -2.105782,4.914979 -3.758597,12.691961 -3.67295,17.282185 0.133628,7.162079 -37.47652,107.681679 -42.41824,113.369959 -0.8421,0.96932 -6.35182,0.92922 -12.24384,-0.0891 -20.00902,-3.45824 -32.23908,7.80022 -31.70553,29.18672 0.50299,20.16193 -2.42656,25.79647 -17.50634,33.67065 -15.90827,8.3068 -28.24346,21.97179 -33.3427,36.93728 -5.0405,14.79296 -4.68095,21.17043 1.98885,35.27894 6.6601,14.08798 15.97208,23.47347 28.46904,28.69375 4.94808,2.06694 8.99651,4.89592 8.99651,6.28661 0,1.39069 1.88927,1.93962 4.19837,1.21983 2.3091,-0.71979 9.05648,0.27079 14.99418,2.20127 12.92786,4.20314 27.91532,2.95891 40.19207,-3.33665 z m 70.165069,-278.57024 c 0,-1.31948 -1.079581,-2.39906 -2.399068,-2.39906 -1.319488,0 -2.399068,1.07958 -2.399068,2.39906 0,1.31949 1.07958,2.39907 2.399068,2.39907 1.319487,0 2.399068,-1.07958 2.399068,-2.39907 z m 4.798137,-9.596268 c 0,-1.319488 -1.683091,-2.399069 -3.740196,-2.399069 -2.057105,0 -3.072966,1.079581 -2.257475,2.399069 0.815491,1.319487 2.498582,2.399068 3.740196,2.399068 1.241613,0 2.257475,-1.079581 2.257475,-2.399068 z m -39.584627,-4.798137 c -1.918487,-3.104171 -5.997671,-3.104171 -5.997671,0 0,1.319488 1.68309,2.399068 3.740196,2.399068 2.057105,0 3.072966,-1.07958 2.257475,-2.399068 z m 44.382763,-6.139256 c 0,-0.581873 -1.68309,-1.057949 -3.740195,-1.057949 -2.057105,0 -3.062075,1.09719 -2.233293,2.438202 1.369412,2.215736 5.973488,1.151903 5.973488,-1.380253 z m -42.007877,-3.496151 c -0.828783,-1.341009 -2.511873,-1.817087 -3.740196,-1.057948 -3.327604,2.056577 -2.707133,3.49615 1.506903,3.49615 2.057105,0 3.062075,-1.09719 2.233293,-2.438202 z m 4.822319,-9.557139 c -1.918487,-3.104171 -5.997671,-3.104171 -5.997671,0 0,1.319488 1.68309,2.399068 3.740195,2.399068 2.057106,0 3.072967,-1.07958 2.257476,-2.399068 z M 234.5467,420.64847 c -14.51436,-5.19636 -27.22316,-10.27605 -28.24181,-11.28822 -1.01862,-1.01216 2.68314,-14.34631 8.22614,-29.63146 l 10.0782,-27.7912 26.56035,9.50607 c 14.60819,5.22834 27.51336,10.45231 28.67813,11.60883 1.83766,1.82464 -12.37423,46.66574 -17.237,54.38587 -1.14665,1.82044 -9.99044,-0.31927 -28.06401,-6.78989 z m -807.28648,-114.7435 0,-122.35248 33.53402,0 33.53402,0 0.6527,44.83951 0.6527,44.83953 40.66348,-44.83953 40.66347,-44.83951 42.02243,0 42.02243,0 -13.08706,13.79464 c -7.19788,7.58705 -27.01272,27.99333 -44.03296,45.34729 l -30.94589,31.55266 47.11374,74.80105 c 25.91256,41.14059 47.11375,75.8184 47.11375,77.06184 0,1.35269 -16.54431,1.99713 -41.18907,1.60435 l -41.18907,-0.6564 -31.07185,-50.01947 -31.07186,-50.01947 -14.10553,13.95833 -14.10554,13.95835 0,36.66091 0,36.66088 -33.58696,0 -33.58695,0 0,-122.35248 z m 865.08997,53.14493 c -0.83339,-1.34845 9.06864,-21.68465 22.00449,-45.19156 16.69735,-30.34227 27.25927,-53.17838 36.4115,-78.72589 7.09045,-19.79231 13.78207,-36.99363 14.87029,-38.22515 6.12605,-6.93284 3.28752,4.97166 -9.61707,40.33325 -9.99169,27.3795 -21.30217,52.17562 -36.47517,79.96494 -23.99983,43.95556 -24.96828,45.44577 -27.19404,41.84441 z m -649.97351,-4.36388 c -4.76235,-4.76235 2.01084,-5.65444 38.3875,-5.05607 29.37649,0.48325 40.25147,1.4535 40.98407,3.65662 0.77075,2.31778 -7.94725,2.99883 -38.38749,2.99883 -21.6616,0 -40.10443,-0.71972 -40.98408,-1.59938 z m 618.55977,-18.37644 c -9.36354,-3.48248 -14.22535,-6.58697 -13.91066,-8.88259 4.50226,-32.84526 17.34423,-88.02346 26.18912,-112.52716 5.92191,-16.40589 11.51953,-31.13342 12.43919,-32.72784 1.22105,-2.11694 9.38031,-0.0605 30.24688,7.62338 15.7161,5.78728 28.96438,10.91195 29.44057,11.38815 0.47619,0.4762 -4.45706,15.32679 -10.96283,33.00132 -12.4105,33.71632 -50.21871,106.13258 -55.86029,106.99245 -1.75316,0.26724 -9.66505,-1.92326 -17.58198,-4.86771 z m -49.14417,-81.38481 c -0.0238,-54.00353 0.80827,-83.36762 2.36234,-83.36762 3.2036,0 3.2036,158.17942 0,163.13664 -1.52621,2.36164 -2.33823,-25.05779 -2.36234,-79.76902 z M -404.805,278.60379 c 0,-5.35866 97.62006,-105.73773 103.74531,-106.67746 5.81285,-0.8918 4.43314,0.6466 -65.83068,73.40216 -19.43303,20.12219 -35.9137,36.5858 -36.6237,36.5858 -0.71001,0 -1.29093,-1.48973 -1.29093,-3.3105 z m -83.96739,-77.05829 c 0,-16.93342 0.47913,-30.30891 1.06474,-29.7233 1.67756,1.67756 2.07188,57.37472 0.4179,59.0287 -0.81545,0.81545 -1.48264,-12.37198 -1.48264,-29.3054 z m 429.433224,-9.45902 c 0,-6.77134 12.599547,-37.32281 15.392087,-37.32281 1.562465,0 3.920797,1.07995 5.24074,2.3999 1.600467,1.60048 8.741581,-13.98266 21.438123,-46.78183 C -6.7971949,83.331785 3.0861988,61.200006 4.6948701,61.200006 c 3.1170615,0 2.3477282,2.26591 -21.9925711,64.774844 -7.450043,19.13257 -14.513427,35.76634 -15.696456,36.96393 -1.285781,1.30159 -3.572069,0.99803 -5.683945,-0.75467 -4.175266,-3.46515 -5.437128,-1.46297 -12.333394,19.56908 -4.260529,12.99369 -8.32767,18.04034 -8.32767,10.33329 z m -79.169254,-68.36911 c 0,-3.44635 3.92828,-5.12293 8.18025,-3.4913 5.85761,2.24777 4.52841,5.74878 -2.18258,5.74878 -3.29872,0 -5.99767,-1.01587 -5.99767,-2.25748 z"
         id="path8178"
         inkscape:connector-curvature="0" />
      <path
         style="fill:#d08a79"
         d="m 245.57927,447.26923 c -13.72442,-5.17854 -25.8697,-9.41551 -26.98952,-9.41551 -1.11983,0 -2.03606,2.69895 -2.03606,5.99767 l 0,5.99767 -46.48809,0 c -38.39599,0 -47.00795,-0.62639 -49.47464,-3.5986 -2.63749,-3.17797 2.51604,-3.5986 44.08902,-3.5986 l 47.07557,0 0,-5.99767 c 0,-3.29872 0.80969,-6.00645 1.7993,-6.01718 0.98962,-0.01 14.01642,4.45167 28.94846,9.91646 15.20203,5.56358 27.9751,9.00327 29.02606,7.81647 1.0323,-1.1657 8.13865,-19.66266 15.79187,-41.10434 7.65324,-21.44167 14.83365,-38.98486 15.95646,-38.98486 1.12284,0 1.98821,1.34948 1.92305,2.99884 -0.2418,6.12182 -29.9588,84.2138 -32.26896,84.79821 -1.31948,0.33381 -13.62812,-3.63006 -27.35252,-8.80856 z m -432.06906,2.86196 c -25.3925,-8.19416 -48.66325,-23.6235 -62.56182,-41.48077 -7.38995,-9.49482 -6.72327,-9.12719 7.80712,4.30503 52.44906,48.48514 131.69554,49.01272 184.90416,1.23098 8.156088,-7.32423 8.996506,-7.60984 8.996506,-3.05742 0,9.77148 -33.131925,31.73596 -59.812376,39.65204 -18.22298,5.40676 -61.66781,5.05088 -79.33359,-0.64986 z m -400.6444,-3.88073 c 0,-3.08172 7.06392,-3.5986 49.1809,-3.5986 l 49.1809,0 0,-40.41233 c 0,-36.66194 0.42318,-40.79532 4.55996,-44.53906 6.66081,-6.02795 9.23597,-0.0425 2.88859,6.71413 -4.71676,5.02077 -5.04948,8.01257 -5.04948,45.40469 l 0,40.02977 -50.38044,0 c -43.18323,0 -50.38043,-0.51409 -50.38043,-3.5986 z m 164.73602,1.99922 c -4.8828,-4.8828 3.91093,-5.62152 59.97787,-5.03855 46.66576,0.48521 61.81902,1.36646 62.57569,3.6391 0.7813,2.3466 -12.26368,2.99883 -59.97786,2.99883 -33.53698,0 -61.69604,-0.71972 -62.5757,-1.59938 z m 376.585839,-1.99922 c -1.199798,-3.12666 5.071199,-3.5986 47.8173417,-3.5986 l 49.1982213,0 -0.692395,-50.38274 c -0.380804,-27.71051 -0.142505,-50.3817 0.52981,-50.38043 0.672219,10e-4 2.641183,2.27444 4.375493,5.05148 2.341395,3.74919 2.389016,4.57684 0.184968,3.21463 -2.340723,-1.44664 -2.646316,8.89927 -1.445271,48.92986 l 1.523049,50.7644 -50.0551446,0 c -42.2803404,0 -50.2696454,-0.55895 -51.4360724,-3.5986 z M -179.29258,429.58754 c -39.51731,-11.12402 -69.1941,-39.61636 -81.66716,-78.40764 l -5.26963,-16.38859 -48.29596,-0.64852 -48.29598,-0.64854 -0.6759,-28.18905 -0.6759,-28.18905 48.97223,0 48.97223,0 2.78717,-11.06885 c 7.40945,-29.42554 33.7492,-63.11468 59.57999,-76.20413 16.27394,-8.24663 38.65919,-13.4082 58.34194,-13.45243 l 15.78001,-0.0355 12.6614,-31.78765 c 6.96375,-17.48321 13.20313,-33.13713 13.86525,-34.78649 0.80846,-2.01392 -1.24426,-2.99884 -6.25003,-2.99884 -4.09965,0 -7.45388,-0.8124 -7.45388,-1.80534 0,-3.14205 21.911118,-59.276437 23.979738,-61.434044 1.08793,-1.134728 6.969366,1.370953 13.069813,5.568183 15.674576,10.784385 29.171854,16.216633 45.118533,18.158854 7.66332,0.933353 13.810861,2.890146 13.831109,4.402521 0.01919,1.497323 -5.01578,15.994571 -11.190766,32.216106 -8.9699,23.56369 -11.991959,29.19565 -15.030643,28.0113 -2.091867,-0.81532 -4.716112,-1.6723 -5.831631,-1.90441 -1.661547,-0.34572 -25.561065,60.96401 -25.561065,65.5721 0,0.76335 6.300889,7.86718 14.001994,15.78628 12.43689,12.78898 20.167984,25.55351 31.111933,51.36789 1.9277,4.54705 2.581974,-4.30182 2.70507,-36.58579 l 0.162369,-42.58346 32.987189,0.0413 32.987189,0.0413 47.793591,70.73118 c 26.286467,38.90215 47.878087,70.73172 47.981367,70.73234 0.10316,6.5e-4 -0.17921,-31.84698 -0.62793,-70.7725 l -0.81569,-70.77369 32.60334,0 32.60336,0 0,121.15294 0,121.15295 -33.18633,0 -33.18636,0 -44.00935,-65.37461 C 60.374894,324.52774 38.744511,292.71441 36.512513,289.7875 c -3.831863,-5.02492 -3.989458,-1.37958 -2.825982,65.37461 l 1.232185,70.69627 -32.7345428,0 -32.7345192,0 -0.162417,-42.58346 c -0.124512,-32.64208 -0.765495,-41.18327 -2.74583,-36.58579 -11.938675,27.71629 -17.221855,36.72515 -28.99418,49.44067 -14.399303,15.55294 -32.84502,26.79654 -54.299747,33.09836 -15.44424,4.5364 -47.05628,4.71806 -62.54011,0.35938 z m 58.57942,-46.81666 c 13.79778,-6.67939 22.053097,-18.41715 25.920419,-36.8548 2.64622,-12.61586 2.369344,-15.11447 -3.76054,-33.93722 -7.360439,-22.60134 -7.221719,-23.4009 6.602764,-38.05911 8.465305,-8.97585 13.125303,-19.4884 10.016758,-22.59695 -0.868559,-0.86857 -5.046656,-0.2699 -9.284634,1.33037 -6.649594,2.51091 -8.527224,2.29686 -13.703067,-1.56214 -3.29872,-2.45946 -6.34736,-6.24994 -6.77478,-8.4233 -1.0061,-5.11589 44.289248,-131.21586 48.736256,-135.67934 2.640511,-2.65028 4.132372,-2.7681 6.818848,-0.53854 2.712723,2.25136 3.735374,2.0812 4.843239,-0.80585 0.980835,-2.55598 -0.09747,-3.65983 -3.575091,-3.65983 -3.801468,0 -4.570609,-0.99326 -3.251146,-4.198373 0.950631,-2.309103 2.268919,-6.077281 2.929551,-8.37373 0.877027,-3.048707 2.745637,-3.787716 6.925006,-2.738757 3.453819,0.866856 5.723889,0.382002 5.723889,-1.222543 0,-1.46253 -2.015193,-2.659147 -4.47822,-2.659147 -4.844439,0 -28.866118,-9.139459 -32.587385,-12.39843 -3.097989,-2.71313 -6.117624,-2.514166 -6.117624,0.403089 0,1.319488 1.619371,2.399068 3.598602,2.399068 1.979232,0 3.598603,1.639939 3.598603,3.64431 0,2.689302 -1.571726,3.249835 -5.997671,2.13899 -3.695525,-0.927518 -5.997671,-0.484636 -5.997671,1.153827 0,1.462529 2.274653,2.659146 5.054813,2.659146 3.934832,0 4.635984,0.930213 3.164515,4.19837 -1.03966,2.309103 -1.768305,7.437111 -1.619179,11.395574 0.150422,3.989596 -9.359245,31.441336 -21.337405,61.595986 l -21.60856,54.39878 -8.81662,-1.35241 c -4.84912,-0.74383 -10.16608,-2.41437 -11.81544,-3.71233 -1.97359,-1.55313 -2.99883,-1.53882 -2.99883,0.0418 0,1.32097 -2.99876,3.64389 -6.66394,5.16206 -9.85252,4.08104 -13.19752,11.36521 -14.42337,31.40877 -0.60523,9.89616 -2.24797,19.42669 -3.65052,21.179 -1.40254,1.75228 -7.4843,5.68634 -13.51505,8.74235 -14.53173,7.36379 -23.59748,16.67172 -30.44168,31.25489 -9.66602,20.59569 -6.72973,37.63584 9.59987,55.71076 4.70001,5.20233 12.90176,11.42321 18.22613,13.82417 5.32437,2.40094 9.68067,5.39649 9.68067,6.65674 0,1.26028 1.50153,1.71519 3.33675,1.01097 1.83519,-0.70422 8.04278,0.24507 13.79464,2.10955 13.75201,4.45776 29.87699,3.11701 43.8471,-3.64582 z M -47.343824,94.786962 c 0,-1.319488 -1.683091,-2.399069 -3.740196,-2.399069 -2.057105,0 -3.072966,1.079581 -2.257475,2.399069 0.815491,1.319487 2.498582,2.399068 3.740196,2.399068 1.241613,0 2.257475,-1.079581 2.257475,-2.399068 z m -39.584627,-4.798137 c -1.918487,-3.104171 -5.997671,-3.104171 -5.997671,0 0,1.319488 1.68309,2.399068 3.740196,2.399068 2.057105,0 3.072966,-1.07958 2.257475,-2.399068 z M 233.34717,419.73819 c -18.08236,-6.73011 -27.35603,-11.37161 -26.91234,-13.46974 2.41404,-11.4157 18.3985,-52.38212 20.43869,-52.38212 3.34449,0 50.35884,17.06604 52.72967,19.14068 1.42376,1.24589 -15.78284,54.83467 -18.17886,56.61679 -0.26834,0.1996 -12.90306,-4.25794 -28.07716,-9.90561 z m -806.08695,-115.03276 0,-121.15294 33.53515,0 33.53515,0 0.65157,45.24483 0.65157,45.24483 40.78417,-45.20426 40.78416,-45.20426 41.93367,-0.0406 41.93368,-0.0406 -21.53682,22.19138 c -11.84525,12.20526 -31.65999,32.60212 -44.03275,45.32635 -15.50573,15.94619 -21.91158,24.14632 -20.61538,26.38974 1.03431,1.79014 21.48712,34.56263 45.45071,72.82777 23.96359,38.26514 44.36777,70.92246 45.34263,72.57182 1.39028,2.35219 -7.18168,2.99367 -39.75302,2.97496 l -41.52552,-0.0239 -20.29241,-32.9633 c -11.16082,-18.12983 -25.01375,-40.39923 -30.78427,-49.48759 l -10.49187,-16.52426 -14.19825,14.0501 -14.19826,14.05009 0,35.46137 0,35.46135 -33.58696,0 -33.58695,0 0,-121.15295 z m 645.349371,70.77252 c -5.376288,-7.91693 -9.235262,-14.39441 -8.575518,-14.39441 0.659744,0 5.598298,6.47748 10.974586,14.39441 5.376288,7.91692 9.235262,14.39441 8.575518,14.39441 -0.659744,0 -5.598298,-6.47749 -10.974586,-14.39441 z M 292.3541,359.05625 c -0.83121,-1.34496 9.09609,-21.68117 22.0607,-45.19158 16.94018,-30.71983 27.1832,-52.87062 36.40757,-78.73222 7.05954,-19.79231 13.72588,-36.99363 14.8141,-38.22515 6.12605,-6.93284 3.28752,4.97166 -9.61707,40.33325 -9.99169,27.3795 -21.30217,52.17562 -36.47517,79.96494 -23.99323,43.9435 -24.96876,45.445 -27.19013,41.85076 z m -649.97742,-4.37023 c -4.76235,-4.76235 2.01084,-5.65444 38.3875,-5.05607 29.37649,0.48325 40.25147,1.4535 40.98407,3.65662 0.77075,2.31778 -7.94725,2.99883 -38.38749,2.99883 -21.6616,0 -40.10443,-0.71972 -40.98408,-1.59938 z m 619.15954,-18.37648 c -7.70792,-2.89685 -13.79464,-6.65859 -13.79464,-8.5254 0,-1.83755 3.29394,-20.73695 7.31987,-41.99867 6.50987,-34.38005 25.31912,-96.30791 31.34466,-103.19976 1.3828,-1.58159 54.88886,15.40739 58.97325,18.72489 0.26152,0.21244 -4.38629,13.84694 -10.32847,30.29892 -11.216,31.05351 -52.4128,110.44324 -57.12412,110.08297 -1.42775,-0.10915 -8.8035,-2.53152 -16.39055,-5.38295 z m -49.74394,-81.38477 c -0.0238,-54.00353 0.80827,-83.36762 2.36234,-83.36762 3.2036,0 3.2036,158.17942 0,163.13664 -1.52621,2.36164 -2.33823,-25.05779 -2.36234,-79.76902 z M -404.805,278.67871 c 0,-5.27555 97.74845,-105.81974 103.78401,-106.75238 5.76301,-0.89052 4.24193,0.80451 -65.86938,73.40216 -19.43303,20.12219 -35.9137,36.5858 -36.6237,36.5858 -0.71001,0 -1.29093,-1.45602 -1.29093,-3.23558 z m -83.96739,-77.13321 c 0,-16.93342 0.47913,-30.30891 1.06474,-29.7233 1.67756,1.67756 2.07188,57.37472 0.4179,59.0287 -0.81545,0.81545 -1.48264,-12.37198 -1.48264,-29.3054 z m 430.737694,-8.22696 c -2.361763,-3.82139 10.298432,-38.55487 14.053046,-38.55487 1.581466,0 3.985212,1.1098 5.341646,2.46623 1.68892,1.68893 8.453525,-13.05568 21.46276,-46.78183 C -6.7291333,83.361634 3.124392,61.200006 4.7195085,61.200006 c 3.0859216,0 2.2651763,2.414681 -22.0172095,64.774844 -7.450043,19.13257 -14.513427,35.76634 -15.696456,36.96393 -1.285589,1.30139 -3.615636,0.96187 -5.791447,-0.8439 -4.040895,-3.35364 -4.303113,-2.92084 -12.84965,21.21054 -2.855779,8.0633 -5.269937,11.84071 -6.399442,10.01312 z m -80.473724,-69.60117 c 0,-3.44635 3.92828,-5.12293 8.18025,-3.4913 5.85761,2.24777 4.52841,5.74878 -2.18258,5.74878 -3.29872,0 -5.99767,-1.01587 -5.99767,-2.25748 z"
         id="path8176"
         inkscape:connector-curvature="0" />
      <path
         style="fill:#68665f"
         d="m 244.80416,446.38776 c -15.4702,-5.64093 -28.69507,-9.6888 -29.38859,-8.99528 -0.69352,0.6935 -1.26095,3.80326 -1.26095,6.91056 l 0,5.64964 -45.98405,-0.65159 c -34.18034,-0.4843 -46.24014,-1.42132 -46.98177,-3.6504 -0.77489,-2.32915 9.22603,-2.99883 44.78454,-2.99883 l 45.78221,0 0,-5.99767 c 0,-3.29872 0.68988,-5.99767 1.53308,-5.99767 0.84318,0 13.84891,4.48347 28.90162,9.96328 15.98862,5.82052 28.20714,9.06253 29.38535,7.79697 1.10923,-1.19147 8.24284,-19.4396 15.85244,-40.5514 15.00577,-41.63137 14.7738,-41.10261 17.03792,-38.83849 1.48851,1.4885 -26.84852,82.75859 -29.99286,86.01897 -0.84771,0.879 -14.19874,-3.01714 -29.66894,-8.65809 z m -424.14079,5.90744 c -24.46721,-6.20387 -55.17941,-25.48492 -69.36253,-43.54563 -7.33395,-9.33904 -6.54073,-8.87946 7.28335,4.21989 49.13343,46.55757 125.79263,49.70046 177.858866,7.29192 15.14743,-12.33774 16.21312,-12.83634 16.21312,-7.58561 0,5.3009 -29.958006,26.47806 -47.981366,33.91776 -13.57019,5.60154 -19.48578,6.52806 -45.5823,7.13941 -16.49359,0.38637 -33.7867,-0.26061 -38.42914,-1.43774 z m -407.79756,-6.04474 c 0,-3.08172 7.06392,-3.5986 49.1809,-3.5986 l 49.1809,0 0,-40.41233 c 0,-36.12342 0.46623,-40.83428 4.39306,-44.38799 6.31697,-5.71679 8.30415,-2.0157 2.72556,5.07633 -4.26962,5.42796 -4.71955,9.85717 -4.71955,46.46057 l 0,40.46062 -50.38044,0 c -43.18323,0 -50.38043,-0.51409 -50.38043,-3.5986 z m 164.73602,1.99922 c -4.8828,-4.8828 3.91093,-5.62152 59.97787,-5.03855 46.66576,0.48521 61.81902,1.36646 62.57569,3.6391 0.7813,2.3466 -12.26368,2.99883 -59.97786,2.99883 -33.53698,0 -61.69604,-0.71972 -62.5757,-1.59938 z m 377.453414,-1.99922 c 0,-3.07879 6.930645,-3.5986 47.9813661,-3.5986 l 47.9813659,0 0.487923,-50.9802 0.487898,-50.9802 1.311403,52.7795 c 0.721256,29.02873 0.977764,53.58919 0.570018,54.5788 -0.407745,0.98962 -22.809045,1.7993 -49.7806668,1.7993 -41.9911082,0 -49.0393072,-0.51721 -49.0393072,-3.5986 z M -177.43892,429.32508 c -39.38152,-9.54644 -71.52975,-40.54238 -83.73852,-80.73702 l -4.94894,-16.29334 -48.94723,0 -48.94723,0 0,-27.58929 0,-27.58928 48.88006,0 48.88005,0 5.4029,-16.803 c 16.2521,-50.54417 57.44039,-81.40886 110.35407,-82.69451 l 20.39208,-0.49547 13.70213,-33.37113 c 7.53617,-18.35413 13.74376,-34.18082 13.79465,-35.17044 0.0509,-0.98961 -2.54273,-1.7993 -5.76357,-1.7993 -3.22085,0 -6.35487,-0.80968 -6.96445,-1.7993 -0.96752,-1.57066 20.484157,-59.443517 22.946632,-61.905997 0.513929,-0.513926 6.373773,2.728667 13.021855,7.205755 16.067112,10.820215 27.624384,15.437568 43.231739,17.271905 7.108463,0.835461 13.44126,2.355232 14.072934,3.377271 0.871342,1.409885 -19.105604,57.865536 -21.870386,61.806576 -0.295565,0.4213 -2.752571,-0.61741 -5.460016,-2.30825 -2.707468,-1.69083 -5.332457,-2.57532 -5.83331,-1.96553 -0.500854,0.6098 -6.29777,16.22285 -12.882037,34.69568 l -11.971399,33.58695 13.702135,13.51282 c 12.464503,12.29229 21.113768,26.67836 32.98359,54.86063 1.902341,4.51668 2.566187,-4.83024 2.688468,-37.85303 l 0.162369,-43.85069 32.9232059,0.66746 32.9232301,0.66747 46.165727,68.17318 c 25.391143,37.49525 47.305953,69.31342 48.699553,70.70701 1.77908,1.77908 2.04588,-18.70657 0.89569,-68.77293 l -1.63816,-71.30679 32.77159,0 32.77158,0 0,121.15294 0,121.15295 -32.98719,-0.0528 -32.98718,-0.0528 -47.704422,-70.71971 c -26.237434,-38.8959 -48.231637,-70.71976 -48.87605,-70.71976 -0.64439,0 -0.375478,31.84764 0.597584,70.77252 l 1.769193,70.77251 -32.6080408,0 -32.6080642,0 -0.65389,-43.78299 -0.65389,-43.783 -5.06928,14.69228 c -20.202002,58.55151 -80.02574,91.02892 -140.61976,76.34041 z m 54.52444,-45.13379 c 14.10588,-6.62553 18.42195,-11.03557 25.005613,-25.54995 6.214955,-13.70152 6.280929,-30.07681 0.185688,-46.11319 -7.257301,-19.09419 -6.408051,-24.521 5.996471,-38.3178 6.529401,-7.26227 10.795808,-14.30788 10.795808,-17.82839 0,-5.58212 -0.482189,-5.75686 -11.758146,-4.26105 -10.860314,1.44067 -12.073384,1.07863 -15.886824,-4.74139 -4.06639,-6.20611 -3.77467,-7.28696 19.337428,-71.64989 12.90634,-35.9418 24.643637,-66.1543 26.082862,-67.13889 1.439226,-0.98459 4.675569,-1.52438 7.191903,-1.19953 2.516311,0.32484 5.035333,-0.75885 5.597818,-2.40821 0.599192,-1.75703 -1.015813,-2.99883 -3.900069,-2.99883 -3.36311,0 -4.4906,-1.12621 -3.558706,-3.554669 1.002235,-2.611506 2.510001,-2.941436 5.682673,-1.243471 3.172672,1.697964 4.680439,1.368035 5.682553,-1.243471 0.920331,-2.398329 -0.172277,-3.554666 -3.358767,-3.554666 -2.625037,0 -4.722854,-1.618745 -4.722854,-3.644309 0,-2.689303 1.571726,-3.249836 5.997671,-2.13899 10.834408,2.719262 6.260752,-2.687789 -5.11455,-6.046516 -6.111723,-1.804579 -15.741703,-5.742566 -21.399953,-8.751086 -8.431574,-4.483112 -10.525145,-4.851326 -11.603622,-2.040839 -0.866183,2.257221 0.29818,3.429194 3.406917,3.429194 2.597567,0 4.722854,1.015867 4.722854,2.257483 0,3.496124 -4.285264,5.31139 -5.997671,2.540654 -1.712407,-2.770737 -5.997671,-0.95547 -5.997671,2.540654 0,1.241616 1.619372,2.257482 3.598603,2.257482 1.979231,0 3.598602,1.619371 3.598602,3.598603 0,4.211996 -2.774858,4.662246 -6.398843,1.038276 -1.814391,-1.814392 -2.980674,-1.464915 -4.003109,1.199534 -0.989928,2.579708 -0.04817,3.75986 3.000371,3.75986 10.065843,0 7.560496,11.481807 -14.66083,67.189227 l -21.5977,54.14411 -8.75807,-0.97426 c -4.81694,-0.53585 -10.10754,-2.0581 -11.7569,-3.38278 -2.01097,-1.61512 -2.99883,-1.60714 -2.99883,0.0242 0,1.338 -2.73244,3.11854 -6.07209,3.95674 -9.87483,2.47842 -15.50021,14.51324 -15.51055,33.18288 -0.01,18.55137 -2.09427,21.72596 -19.93024,30.36021 -29.45562,14.25922 -41.19284,49.1921 -25.63995,76.31088 6.73436,11.74231 21.42791,24.6779 28.03165,24.6779 1.62153,0 5.14946,2.36272 7.83982,5.2505 2.69039,2.88778 4.89161,4.08127 4.89161,2.65217 0,-1.77303 3.2385,-1.58669 10.19604,0.58669 15.68383,4.89926 30.2636,4.17496 43.78299,-2.17509 z m 353.61375,34.14916 -25.43908,-9.55629 9.67065,-26.84914 c 5.31883,-14.76704 9.97353,-27.25347 10.34375,-27.74763 0.3702,-0.49418 13.19545,3.69459 28.50052,9.30836 22.61681,8.29567 27.53634,10.93462 26.27294,14.09338 -0.85495,2.13757 -5.36307,14.4124 -10.01805,27.2774 -4.65496,12.86501 -9.68489,23.30976 -11.17764,23.21056 -1.49273,-0.0991 -14.16163,-4.48067 -28.15309,-9.73664 z m -803.43905,-113.63502 0,-121.15294 33.53515,0 33.53515,0 0.65157,45.54665 0.65157,45.54666 41.4546,-45.54666 41.4546,-45.54665 40.9144,0 40.9144,0 -43.38414,44.90053 c -23.86127,24.6953 -43.38414,45.73857 -43.38414,46.7628 0,1.52514 24.41989,40.85271 87.95309,141.64606 l 5.67077,8.9965 -41.41402,-0.0974 -41.41403,-0.0974 -28.22537,-46.08469 c -15.52395,-25.34659 -29.25135,-47.70406 -30.50533,-49.68329 -1.8576,-2.93195 -4.96187,-0.94593 -16.75716,10.72072 l -14.4772,14.31929 0,35.46137 0,35.46135 -33.58696,0 -33.58695,0 0,-121.15295 z m 865.29067,54.6692 c -0.723,-1.16983 9.01472,-20.96624 21.63934,-43.99202 15.6579,-28.55806 27.42331,-53.99773 37.0151,-80.03555 7.73369,-20.99377 14.60762,-38.71688 15.27545,-39.3847 4.7793,-4.7793 1.76626,6.60122 -11.03442,41.67802 -10.19137,27.9267 -21.43645,52.66136 -36.42549,80.12138 -23.6681,43.36014 -24.54151,44.73322 -26.46998,41.61287 z m -650.57406,-5.4883 c -0.96634,-1.56356 12.77012,-2.39906 39.44303,-2.39906 25.68445,0 40.92576,0.89343 40.92576,2.39906 0,1.50211 -14.74705,2.39907 -39.44303,2.39907 -23.70753,0 -40.03457,-0.95708 -40.92576,-2.39907 z m 622.55822,-17.21137 c -7.25718,-2.73131 -14.09277,-5.78612 -15.19022,-6.78845 -3.68224,-3.36309 15.09659,-88.19736 26.21649,-118.43429 5.80147,-15.77522 10.98771,-29.12177 11.52493,-29.65901 1.87573,-1.87573 56.61767,19.35711 56.57188,21.94264 -0.1677,9.46871 -24.42082,66.30672 -42.25724,99.03109 -11.69954,21.46506 -21.81168,38.99287 -22.47143,38.9507 -0.65974,-0.0422 -7.13722,-2.31136 -14.39441,-5.04268 z m -51.70097,-83.54949 c 0,-45.52232 0.3226,-64.14509 0.71691,-41.38393 0.39431,22.76116 0.39431,60.00669 0,82.76785 -0.39431,22.76116 -0.71691,4.1384 -0.71691,-41.38392 z m -617.61248,25.78998 c 0.0433,-4.87656 98.48785,-106.0788 104.05842,-106.97332 5.12995,-0.82376 -3.26842,8.35885 -72.60427,79.38404 -16.42333,16.82346 -30.22513,30.58812 -30.67067,30.58812 -0.44554,0 -0.79811,-1.34948 -0.78348,-2.99884 z m -83.06949,-78.56948 c 0,-16.4936 0.38329,-23.24098 0.85176,-14.99418 0.46847,8.2468 0.46847,21.74155 0,29.98835 -0.46847,8.2468 -0.85176,1.49942 -0.85176,-14.99417 z M -59.339166,191.727 c 0,-2.78076 12.635749,-36.96333 13.663678,-36.96333 0.575392,0 3.0579,1.07664 5.516657,2.39253 3.907987,2.09149 5.069184,0.80855 9.228448,-10.19604 C -5.1206779,78.673092 5.4356784,54.350299 5.4356784,63.16954 c 0,3.999401 -35.9115814,97.04699 -38.5057904,99.76924 -1.232521,1.29335 -3.600953,0.91102 -5.833262,-0.94164 -4.705869,-3.90551 -4.350495,-4.40183 -10.709657,14.95791 -2.925544,8.90654 -6.310749,16.19371 -7.522662,16.19371 -1.211914,0 -2.203473,-0.63979 -2.203473,-1.42176 z m -77.504664,-67.28631 c -0.84377,-0.84378 -1.02262,-2.3618 -0.39745,-3.37338 1.47512,-2.38676 10.7282,0.0182 10.7282,2.78828 0,2.43175 -8.02932,2.88651 -10.33075,0.5851 z"
         id="path8174"
         inkscape:connector-curvature="0" />
      <path
         style="fill:#dc1724"
         d="m 243.54321,445.26152 c -16.16373,-5.98841 -29.38859,-11.58208 -29.38859,-12.43037 0,-0.84831 12.68507,3.083 28.18905,8.73619 15.50398,5.65321 28.89714,9.55937 29.76256,8.68038 0.86544,-0.87902 6.98356,-16.71232 13.59585,-35.18515 16.1055,-44.99402 17.16411,-47.63546 18.53969,-46.25989 1.02004,1.02004 -28.91117,85.87993 -30.67046,86.95579 -0.35172,0.2152 -13.86438,-4.50854 -30.0281,-10.49695 z m -423.38119,5.65518 c -12.55606,-3.0437 -37.83969,-14.1154 -37.83969,-16.56998 0,-0.56491 5.6678,1.44606 12.59511,4.46879 19.33845,8.43834 34.58007,11.41035 58.1774,11.34416 34.51249,-0.0967 65.814938,-11.9655 88.165761,-33.42914 6.359595,-6.10714 8.996506,-7.49671 8.996506,-4.74085 0,9.60716 -35.818353,32.22963 -61.522527,38.85694 -17.83155,4.59748 -49.76116,4.63011 -68.57256,0.0701 z m -358.71508,-5.26327 49.78067,-0.69986 0,-41.56318 c 0,-38.5164 0.35173,-41.88152 4.79814,-45.90545 4.02076,-3.63874 4.79813,-3.74658 4.79813,-0.66558 0,2.02218 -1.61937,5.02063 -3.5986,6.66325 -2.93864,2.43884 -3.5986,10.41224 -3.5986,43.47697 l 0,40.49042 -50.9802,-0.54836 -50.98021,-0.54835 49.78067,-0.69986 z m 146.34317,0.005 c 16.82346,-0.4124 44.35277,-0.4124 61.17624,0 16.82347,0.4124 3.05881,0.74983 -30.58812,0.74983 -33.64693,0 -47.41159,-0.33743 -30.58812,-0.74983 z m 362.859078,0.13866 c 41.217361,-1.71953 82.775581,-1.79248 82.771887,-0.14538 -0.0022,0.98962 -22.405331,1.5848 -49.7846978,1.32261 -27.3793672,-0.26217 -42.2236022,-0.79196 -32.9871892,-1.1773 z m 166.735242,0.01 c 38.17734,-1.72519 76.77856,-1.80307 76.77456,-0.15474 -0.002,0.98962 -20.7863,1.58785 -46.18643,1.32942 -25.40014,-0.25843 -39.16479,-0.78699 -30.58813,-1.17456 z m -314.82335,-16.48047 c -39.38152,-9.54645 -71.52975,-40.54238 -83.73852,-80.73702 l -4.94894,-16.29428 -48.94723,0 -48.94723,0 0,-27.58929 0,-27.58928 48.88006,0 48.88005,0 5.4029,-16.803 c 16.2521,-50.54417 57.44039,-81.40886 110.35407,-82.69451 l 20.39208,-0.49547 13.70213,-33.37113 c 7.53617,-18.35413 13.74376,-34.18082 13.79465,-35.17044 0.0509,-0.98961 -2.54273,-1.7993 -5.76357,-1.7993 -3.22085,0 -6.35487,-0.80968 -6.96445,-1.7993 -0.96752,-1.57066 20.484157,-59.443517 22.946632,-61.905997 0.513929,-0.513926 6.373773,2.728667 13.021855,7.205755 16.067112,10.820215 27.624384,15.437568 43.231739,17.271905 7.108463,0.835461 13.44126,2.355232 14.072934,3.377271 0.871342,1.409885 -19.105604,57.865536 -21.870386,61.806576 -0.295565,0.4213 -2.752571,-0.61741 -5.460016,-2.30825 -2.707468,-1.69083 -5.332457,-2.57532 -5.83331,-1.96553 -0.500854,0.6098 -6.29777,16.22285 -12.882037,34.69568 l -11.971399,33.58695 13.702135,13.51282 c 12.464503,12.29229 21.113768,26.67836 32.98359,54.86063 1.902341,4.51668 2.566187,-4.83024 2.688468,-37.85303 l 0.162369,-43.85069 32.9232059,0.66746 32.9232301,0.66747 46.165727,68.17318 c 25.391143,37.49525 47.305953,69.31342 48.699553,70.70701 1.77908,1.77908 2.04588,-18.70657 0.89569,-68.77293 l -1.63816,-71.30679 32.77159,0 32.77158,0 0,121.15294 0,121.15295 -32.98719,-0.0528 -32.98718,-0.0528 -47.704422,-70.71971 c -26.237434,-38.8959 -48.231637,-70.71976 -48.87605,-70.71976 -0.64439,0 -0.375478,31.84764 0.597584,70.77252 l 1.769193,70.77251 -32.6080408,0 -32.6080642,0 -0.65389,-43.78299 -0.65389,-43.783 -5.06928,14.69228 c -20.202002,58.55151 -80.02574,91.02892 -140.61976,76.34041 z m 54.52444,-45.13473 c 14.10588,-6.62553 18.42195,-11.03557 25.005613,-25.54995 6.214955,-13.70152 6.280929,-30.07681 0.185688,-46.11319 -7.257301,-19.09419 -6.408051,-24.521 5.996471,-38.3178 6.529401,-7.26227 10.795808,-14.30788 10.795808,-17.82839 0,-5.58212 -0.482189,-5.75686 -11.758146,-4.26105 -10.860314,1.44067 -12.073384,1.07863 -15.886824,-4.74139 -4.06639,-6.20611 -3.77467,-7.28696 19.337428,-71.64989 12.90634,-35.9418 24.643637,-66.1543 26.082862,-67.13889 1.439226,-0.98459 4.675569,-1.52438 7.191903,-1.19953 2.516311,0.32484 5.035333,-0.75885 5.597818,-2.40821 0.599192,-1.75703 -1.015813,-2.99883 -3.900069,-2.99883 -3.36311,0 -4.4906,-1.12621 -3.558706,-3.554669 1.002235,-2.611506 2.510001,-2.941436 5.682673,-1.243471 3.172672,1.697964 4.680439,1.368035 5.682553,-1.243471 0.920331,-2.398329 -0.172277,-3.554666 -3.358767,-3.554666 -2.625037,0 -4.722854,-1.618745 -4.722854,-3.644309 0,-2.689303 1.571726,-3.249836 5.997671,-2.13899 10.834408,2.719262 6.260752,-2.687789 -5.11455,-6.046516 -6.111723,-1.804579 -15.741703,-5.742566 -21.399953,-8.751086 -8.431574,-4.483112 -10.525145,-4.851326 -11.603622,-2.040839 -0.866183,2.257221 0.29818,3.429194 3.406917,3.429194 2.597567,0 4.722854,1.015867 4.722854,2.257483 0,3.496124 -4.285264,5.31139 -5.997671,2.540654 -1.712407,-2.770737 -5.997671,-0.95547 -5.997671,2.540654 0,1.241616 1.619372,2.257482 3.598603,2.257482 1.979231,0 3.598602,1.619371 3.598602,3.598603 0,4.211996 -2.774858,4.662246 -6.398843,1.038276 -1.814391,-1.814392 -2.980674,-1.464915 -4.003109,1.199534 -0.989928,2.579708 -0.04817,3.75986 3.000371,3.75986 10.065843,0 7.560496,11.481807 -14.66083,67.189227 l -21.5977,54.14411 -8.75807,-0.97426 c -4.81694,-0.53585 -10.10754,-2.0581 -11.7569,-3.38278 -2.01097,-1.61512 -2.99883,-1.60714 -2.99883,0.0242 0,1.338 -2.73244,3.11854 -6.07209,3.95674 -9.87483,2.47842 -15.50021,14.51324 -15.51055,33.18288 -0.01,18.55137 -2.09427,21.72596 -19.93024,30.36021 -29.45562,14.25922 -41.19284,49.1921 -25.63995,76.31088 6.73436,11.74231 21.42791,24.6779 28.03165,24.6779 1.62153,0 5.14946,2.36272 7.83982,5.2505 2.69039,2.88778 4.89161,4.08127 4.89161,2.65217 0,-1.77303 3.2385,-1.58669 10.19604,0.58669 15.68383,4.89926 30.2636,4.17496 43.78299,-2.17509 z m -109.46363,39.86779 c -2.98413,-3.80507 -2.89927,-3.88992 0.90579,-0.90579 3.99625,3.13407 5.26711,5.10416 3.29258,5.10416 -0.49817,0 -2.38743,-1.88927 -4.19837,-4.19837 z m 463.07738,-5.71863 -25.43908,-9.55629 9.67065,-26.84914 c 5.31883,-14.76704 9.97353,-27.25347 10.34375,-27.74763 0.3702,-0.49418 13.19545,3.69459 28.50052,9.30836 22.61681,8.29567 27.53634,10.93462 26.27294,14.09338 -0.85495,2.13757 -5.36307,14.4124 -10.01805,27.2774 -4.65496,12.86501 -9.68489,23.30976 -11.17764,23.21056 -1.49273,-0.0991 -14.16163,-4.48067 -28.15309,-9.73664 z m -803.43905,-113.63502 0,-121.15294 33.53515,0 33.53515,0 0.65157,45.54665 0.65157,45.54666 41.4546,-45.54666 41.4546,-45.54665 40.9144,0 40.9144,0 -43.38414,44.90053 c -23.86127,24.6953 -43.38414,45.73857 -43.38414,46.7628 0,1.52514 24.41989,40.85271 87.95309,141.64606 l 5.67077,8.9965 -41.41402,-0.0974 -41.41403,-0.0974 -28.22537,-46.08469 c -15.52395,-25.34659 -29.25135,-47.70406 -30.50533,-49.68329 -1.8576,-2.93195 -4.96187,-0.94593 -16.75716,10.72072 l -14.4772,14.31929 0,35.46137 0,35.46135 -33.58696,0 -33.58695,0 0,-121.15295 z m 624.723357,75.57065 c 0,-20.45205 0.367945,-28.8188 0.817651,-18.59277 0.449705,10.22602 0.449705,26.95953 0,37.18555 -0.449706,10.22603 -0.817651,1.85928 -0.817651,-18.59278 z M 297.90689,346.08936 c 34.24754,-61.419 42.29444,-77.92421 54.76679,-112.33362 7.60198,-20.9728 14.19227,-37.0379 14.64509,-35.70022 0.4528,1.33767 -5.33171,19.40365 -12.8545,40.14661 -9.50501,26.20867 -20.59626,50.33977 -36.35562,79.09841 -12.47278,22.76116 -23.7009,41.38393 -24.95134,41.38393 -1.25045,0 0.88686,-5.6678 4.74958,-12.59511 z m -654.73052,7.79697 c 0,-1.49905 14.34722,-2.39906 38.24349,-2.39906 22.90784,0 38.83809,0.96202 39.72622,2.39906 0.96568,1.56249 -12.37026,2.39907 -38.24349,2.39907 -24.88477,0 -39.72622,-0.89627 -39.72622,-2.39907 z m 621.35868,-17.21137 c -7.25718,-2.73131 -14.09277,-5.78612 -15.19022,-6.78845 -3.68224,-3.36309 15.09659,-88.19736 26.21649,-118.43429 5.80147,-15.77522 10.98771,-29.12177 11.52493,-29.65901 1.87573,-1.87573 56.61767,19.35711 56.57188,21.94264 -0.1677,9.46871 -24.42082,66.30672 -42.25724,99.03109 -11.69954,21.46506 -21.81168,38.99287 -22.47143,38.9507 -0.65974,-0.0422 -7.13722,-2.31136 -14.39441,-5.04268 z m -669.23384,-58.95904 c 0.20121,-3.40858 102.6254,-107.35588 104.22342,-105.77329 1.69664,1.68024 -99.10088,107.57259 -102.39694,107.57259 -1.06298,0 -1.8849,-0.80969 -1.82648,-1.7993 z m -83.15772,-76.17042 c 0.005,-15.83385 0.39301,-21.99914 0.86282,-13.70063 0.46981,8.29851 0.46593,21.25347 -0.009,28.78882 -0.47454,7.53534 -0.85893,0.74566 -0.85418,-15.08819 z m 428.519288,-8.99651 c 0.0096,-2.74805 9.396406,-23.80591 9.482125,-21.27018 0.191686,5.67065 -5.337567,21.86995 -7.464749,21.86995 -1.110625,0 -2.018432,-0.26989 -2.017376,-0.59977 z m 10.967676,-30.58812 c 2.17238,-8.03384 2.69792,-8.38796 7.067104,-4.76186 2.216715,1.83972 4.574711,2.22595 5.748815,0.94163 1.094815,-1.19759 9.891886,-22.68947 19.549048,-47.75973 C 2.9704438,61.121211 2.4811538,62.243927 4.2170717,63.979852 4.8663315,64.629107 1.7769553,74.255368 -2.6481982,85.371542 -7.0733756,96.487716 -15.788783,118.79887 -22.015781,134.95188 c -10.52596,27.30457 -11.659304,29.18851 -16.122506,26.79988 -3.814999,-2.04173 -5.524623,-1.66831 -8.326854,1.81878 -3.289267,4.09318 -3.417233,3.98503 -1.904405,-1.60967 z m -85.340734,-38.38509 c -2.89513,-1.87098 -2.51571,-2.33278 1.94089,-2.36233 3.08897,-0.0204 4.88357,1.02455 4.05678,2.36233 -1.78297,2.88488 -1.53363,2.88488 -5.99767,0 z"
         id="path8172"
         inkscape:connector-curvature="0" />
      <path
         style="fill:#201f21"
         d="m 243.54321,445.26152 c -16.16373,-5.98841 -29.38859,-11.58208 -29.38859,-12.43037 0,-0.84831 12.68507,3.083 28.18905,8.73619 15.50398,5.65321 28.89714,9.55937 29.76256,8.68038 0.86544,-0.87902 6.98356,-16.71232 13.59585,-35.18515 16.1055,-44.99402 17.16411,-47.63546 18.53969,-46.25989 1.02004,1.02004 -28.91117,85.87993 -30.67046,86.95579 -0.35172,0.2152 -13.86438,-4.50854 -30.0281,-10.49695 z m -423.38119,5.65518 c -12.55606,-3.0437 -37.83969,-14.1154 -37.83969,-16.56998 0,-0.56491 5.6678,1.44606 12.59511,4.46879 19.33845,8.43834 34.58007,11.41035 58.1774,11.34416 34.51249,-0.0967 65.814938,-11.9655 88.165761,-33.42914 6.359595,-6.10714 8.996506,-7.49671 8.996506,-4.74085 0,9.60716 -35.818353,32.22963 -61.522527,38.85694 -17.83155,4.59748 -49.76116,4.63011 -68.57256,0.0701 z m -358.71508,-5.26327 49.78067,-0.69986 0,-41.56318 c 0,-38.5164 0.35173,-41.88152 4.79814,-45.90545 4.02076,-3.63874 4.79813,-3.74658 4.79813,-0.66558 0,2.02218 -1.61937,5.02063 -3.5986,6.66325 -2.93864,2.43884 -3.5986,10.41224 -3.5986,43.47697 l 0,40.49042 -50.9802,-0.54836 -50.98021,-0.54835 49.78067,-0.69986 z m 146.34317,0.005 c 16.82346,-0.4124 44.35277,-0.4124 61.17624,0 16.82347,0.4124 3.05881,0.74983 -30.58812,0.74983 -33.64693,0 -47.41159,-0.33743 -30.58812,-0.74983 z m 362.859078,0.13866 c 41.217361,-1.71953 82.775581,-1.79248 82.771887,-0.14538 -0.0022,0.98962 -22.405331,1.5848 -49.7846978,1.32261 -27.3793672,-0.26217 -42.2236022,-0.79196 -32.9871892,-1.1773 z m 166.735242,0.01 c 38.17734,-1.72519 76.77856,-1.80307 76.77456,-0.15474 -0.002,0.98962 -20.7863,1.58785 -46.18643,1.32942 -25.40014,-0.25843 -39.16479,-0.78699 -30.58813,-1.17456 z m -369.76254,-21.74741 c -2.98413,-3.80507 -2.89927,-3.88992 0.90579,-0.90579 3.99625,3.13407 5.26711,5.10416 3.29258,5.10416 -0.49817,0 -2.38743,-1.88927 -4.19837,-4.19837 z m 284.361687,-43.783 c 0,-20.45205 0.367945,-28.8188 0.817651,-18.59277 0.449705,10.22602 0.449705,26.95953 0,37.18555 -0.449706,10.22603 -0.817651,1.85928 -0.817651,-18.59278 z M 297.90689,346.08936 c 34.24754,-61.419 42.29444,-77.92421 54.76679,-112.33362 7.60198,-20.9728 14.19227,-37.0379 14.64509,-35.70022 0.4528,1.33767 -5.33171,19.40365 -12.8545,40.14661 -9.50501,26.20867 -20.59626,50.33977 -36.35562,79.09841 -12.47278,22.76116 -23.7009,41.38393 -24.95134,41.38393 -1.25045,0 0.88686,-5.6678 4.74958,-12.59511 z m -654.73052,7.79697 c 0,-1.49905 14.34722,-2.39906 38.24349,-2.39906 22.90784,0 38.83809,0.96202 39.72622,2.39906 0.96568,1.56249 -12.37026,2.39907 -38.24349,2.39907 -24.88477,0 -39.72622,-0.89627 -39.72622,-2.39907 z m -47.87516,-76.17041 c 0.20121,-3.40858 102.6254,-107.35588 104.22342,-105.77329 1.69664,1.68024 -99.10088,107.57259 -102.39694,107.57259 -1.06298,0 -1.8849,-0.80969 -1.82648,-1.7993 z m -83.15772,-76.17042 c 0.005,-15.83385 0.39301,-21.99914 0.86282,-13.70063 0.46981,8.29851 0.46593,21.25347 -0.009,28.78882 -0.47454,7.53534 -0.85893,0.74566 -0.85418,-15.08819 z m 428.519288,-8.99651 c 0.0096,-2.74805 9.396406,-23.80591 9.482125,-21.27018 0.191686,5.67065 -5.337567,21.86995 -7.464749,21.86995 -1.110625,0 -2.018432,-0.26989 -2.017376,-0.59977 z m 10.967676,-30.58812 c 2.17238,-8.03384 2.69792,-8.38796 7.067104,-4.76186 2.216715,1.83972 4.574711,2.22595 5.748815,0.94163 1.094815,-1.19759 9.891886,-22.68947 19.549048,-47.75973 C 2.9704438,61.121211 2.4811538,62.243927 4.2170717,63.979852 4.8663315,64.629107 1.7769553,74.255368 -2.6481982,85.371542 -7.0733756,96.487716 -15.788783,118.79887 -22.015781,134.95188 c -10.52596,27.30457 -11.659304,29.18851 -16.122506,26.79988 -3.814999,-2.04173 -5.524623,-1.66831 -8.326854,1.81878 -3.289267,4.09318 -3.417233,3.98503 -1.904405,-1.60967 z m -85.340734,-38.38509 c -2.89513,-1.87098 -2.51571,-2.33278 1.94089,-2.36233 3.08897,-0.0204 4.88357,1.02455 4.05678,2.36233 -1.78297,2.88488 -1.53363,2.88488 -5.99767,0 z"
         id="path8170"
         inkscape:connector-curvature="0" />
    </g>
  </g>
</svg>
